<?xml version="1.0" encoding="UTF-8" standalone="no"?>
<!-- Created with Inkscape (http://www.inkscape.org/) -->

<svg
   width="140"
   height="40"
   viewBox="0 0 37.041667 10.583333"
   version="1.1"
   id="svg5"
   inkscape:version="1.1 (c68e22c387, 2021-05-23)"
   sodipodi:docname="NYUXO_LOGO_CLARO.svg"
   xmlns:inkscape="http://www.inkscape.org/namespaces/inkscape"
   xmlns:sodipodi="http://sodipodi.sourceforge.net/DTD/sodipodi-0.dtd"
   xmlns:xlink="http://www.w3.org/1999/xlink"
   xmlns="http://www.w3.org/2000/svg"
   xmlns:svg="http://www.w3.org/2000/svg">
  <sodipodi:namedview
     id="namedview7"
     pagecolor="#ffffff"
     bordercolor="#666666"
     borderopacity="1.0"
     inkscape:pageshadow="2"
     inkscape:pageopacity="0.0"
     inkscape:pagecheckerboard="0"
     inkscape:document-units="px"
     showgrid="false"
     inkscape:zoom="5.9295174"
     inkscape:cx="87.443879"
     inkscape:cy="52.533787"
     inkscape:window-width="1920"
     inkscape:window-height="1017"
     inkscape:window-x="-8"
     inkscape:window-y="-8"
     inkscape:window-maximized="1"
     inkscape:current-layer="layer1"
     units="px" />
  <defs
     id="defs2">
    <linearGradient
       inkscape:collect="always"
       id="linearGradient15960">
      <stop
         style="stop-color:#27023a;stop-opacity:1"
         offset="0"
         id="stop15956" />
      <stop
         style="stop-color:#491d54;stop-opacity:1"
         offset="1"
         id="stop15958" />
    </linearGradient>
    <linearGradient
       inkscape:collect="always"
       id="linearGradient1006">
      <stop
         style="stop-color:#2d124b;stop-opacity:1"
         offset="0"
         id="stop1002" />
      <stop
         style="stop-color:#6d1950;stop-opacity:1"
         offset="1"
         id="stop1004" />
    </linearGradient>
    <linearGradient
       inkscape:collect="always"
       id="linearGradient871">
      <stop
         style="stop-color:#311353;stop-opacity:1"
         offset="0"
         id="stop867" />
      <stop
         style="stop-color:#c82d6c;stop-opacity:1"
         offset="1"
         id="stop869" />
    </linearGradient>
    <linearGradient
       inkscape:collect="always"
       xlink:href="#linearGradient871"
       id="linearGradient12528"
       gradientUnits="userSpaceOnUse"
       x1="-66.391403"
       y1="105.14243"
       x2="298.19382"
       y2="-64.597359" />
    <linearGradient
       inkscape:collect="always"
       xlink:href="#linearGradient1006"
       id="linearGradient1008"
       x1="15.201676"
       y1="126.01081"
       x2="66.654533"
       y2="126.01081"
       gradientUnits="userSpaceOnUse"
       gradientTransform="translate(0,-192.05048)" />
    <linearGradient
       inkscape:collect="always"
       xlink:href="#linearGradient15960"
       id="linearGradient15962"
       x1="70.939522"
       y1="126.01081"
       x2="198.98102"
       y2="126.01081"
       gradientUnits="userSpaceOnUse" />
    <linearGradient
       inkscape:collect="always"
       xlink:href="#linearGradient871"
       id="linearGradient34199"
       gradientUnits="userSpaceOnUse"
       x1="-66.391403"
       y1="105.14243"
       x2="298.19382"
       y2="-64.597359" />
    <linearGradient
       inkscape:collect="always"
       xlink:href="#linearGradient871"
       id="linearGradient34201"
       gradientUnits="userSpaceOnUse"
       x1="-66.391403"
       y1="105.14243"
       x2="298.19382"
       y2="-64.597359" />
    <linearGradient
       inkscape:collect="always"
       xlink:href="#linearGradient871"
       id="linearGradient34203"
       gradientUnits="userSpaceOnUse"
       x1="-66.391403"
       y1="105.14243"
       x2="298.19382"
       y2="-64.597359" />
    <linearGradient
       inkscape:collect="always"
       xlink:href="#linearGradient871"
       id="linearGradient34205"
       gradientUnits="userSpaceOnUse"
       x1="-66.391403"
       y1="105.14243"
       x2="298.19382"
       y2="-64.597359" />
    <linearGradient
       inkscape:collect="always"
       xlink:href="#linearGradient871"
       id="linearGradient34207"
       gradientUnits="userSpaceOnUse"
       x1="-66.391403"
       y1="105.14243"
       x2="298.19382"
       y2="-64.597359" />
    <linearGradient
       inkscape:collect="always"
       xlink:href="#linearGradient871"
       id="linearGradient34209"
       gradientUnits="userSpaceOnUse"
       x1="-66.391403"
       y1="105.14243"
       x2="298.19382"
       y2="-64.597359" />
    <linearGradient
       inkscape:collect="always"
       xlink:href="#linearGradient15960"
       id="linearGradient34211"
       gradientUnits="userSpaceOnUse"
       x1="70.939522"
       y1="126.01081"
       x2="198.98102"
       y2="126.01081" />
    <linearGradient
       inkscape:collect="always"
       xlink:href="#linearGradient15960"
       id="linearGradient34213"
       gradientUnits="userSpaceOnUse"
       x1="70.939522"
       y1="126.01081"
       x2="198.98102"
       y2="126.01081" />
    <linearGradient
       inkscape:collect="always"
       xlink:href="#linearGradient15960"
       id="linearGradient34215"
       gradientUnits="userSpaceOnUse"
       x1="70.939522"
       y1="126.01081"
       x2="198.98102"
       y2="126.01081" />
    <linearGradient
       inkscape:collect="always"
       xlink:href="#linearGradient15960"
       id="linearGradient34217"
       gradientUnits="userSpaceOnUse"
       x1="70.939522"
       y1="126.01081"
       x2="198.98102"
       y2="126.01081" />
    <linearGradient
       inkscape:collect="always"
       xlink:href="#linearGradient15960"
       id="linearGradient34219"
       gradientUnits="userSpaceOnUse"
       x1="70.939522"
       y1="126.01081"
       x2="198.98102"
       y2="126.01081" />
  </defs>
  <g
     inkscape:label="Capa 1"
     inkscape:groupmode="layer"
     id="layer1">
    <g
       id="g863"
       transform="matrix(0.19949253,0,0,0.19949253,-3.7638385,-0.69310931)"
       style="fill:url(#linearGradient12528);fill-opacity:1">
      <path
         d="m 43.043639,4.4316679 c -4.97004,0.48253 -10.149181,2.58957 -13.752062,5.5973301 -0.482529,0.40211 -1.013311,0.85247 -1.174154,0.98115 -0.176927,0.12867 -0.965057,0.96505 -1.753187,1.84969 -3.200774,3.5868 -4.921793,6.86799 -6.015525,11.50027 -0.611203,2.5574 -0.707708,6.70714 -0.22518,9.57015 1.624514,9.71491 8.412084,17.54796 17.805308,20.57181 7.35052,2.36438 15.23182,1.19023 21.84246,-3.24903 5.58125,-3.74764 9.37715,-9.31281 10.96949,-16.10038 0.48253,-2.10704 0.69163,-6.43371 0.38603,-8.55684 -1.52801,-10.63171 -9.13588,-19.0277101 -19.49416,-21.5368601 -3.00777,-0.7238 -5.66167,-0.91681 -8.58902,-0.62729 z m 6.11204,3.0721 1.28674,0.17693 -1.93012,0.35385 c -4.63227,0.86855 -8.34774,2.8308401 -11.75761,6.2567901 -1.78536,1.80144 -2.798669,3.15252 -3.876316,5.19523 -5.291731,10.05268 -2.300053,22.35716 6.996666,28.80696 2.87909,2.01054 5.64558,3.05601 10.08485,3.82806 l 0.64337,0.11259 -0.48253,0.12867 c -0.9168,0.27343 -4.47143,0.43428 -6.19245,0.28952 -2.17138,-0.19301 -3.66722,-0.49861 -5.72601,-1.19024 -7.543528,-2.52523 -13.301703,-9.15196 -14.942301,-17.1941 -0.353854,-1.78536 -0.482529,-5.0183 -0.257349,-6.85191 1.061563,-8.58901 6.948413,-16.00387 14.94231,-18.8186201 3.79589,-1.33499 7.10925,-1.65668 11.21075,-1.09373 z m -1.31892,3.1846901 c 0.3056,0.36994 0.64337,0.98114 0.75597,1.36716 0.41819,1.51193 -0.12868,2.57349 -1.83361,3.52246 -1.67277,0.93289 -2.20355,2.07488 -1.6406,3.55463 0.20909,0.54687 0.46644,0.8203 1.07765,1.20632 0.93288,0.56295 0.94897,0.56295 0.94897,0.19301 0,-1.09373 1.86578,-3.28119 3.32945,-3.90848 1.06156,-0.45036 2.6539,-0.78813 3.87631,-0.78813 2.13921,0 3.10427,-0.98114 3.49029,-3.53854 0.14476,-0.85247 0.38603,-1.38325 0.56295,-1.19024 0.16084,0.19301 0.48253,2.09096 0.48253,2.91126 0,1.06156 -0.43427,2.20354 -1.14199,3.00776 -0.83638,0.94897 -1.27065,1.15807 -3.03993,1.54409 -1.76927,0.38602 -2.20354,0.59512 -3.03993,1.54409 -1.09373,1.25458 -1.46366,3.13644 -0.80421,4.18192 l 0.33777,0.54686 0.86855,-0.78813 c 1.06156,-0.96505 2.30005,-1.47975 3.87631,-1.59234 1.01331,-0.0643 1.38325,0 3.10427,0.53078 2.23572,0.69162 2.99168,0.69162 4.00499,0.0322 0.36994,-0.24127 0.85247,-0.80422 1.17415,-1.335 0.54687,-0.96506 1.52801,-2.09096 1.67277,-1.96228 0.0804,0.0804 -0.16084,1.15807 -0.69163,3.02384 -0.59511,2.18747 -2.20354,3.53855 -4.21408,3.53855 -0.51469,0 -1.46367,-0.11259 -2.10704,-0.25735 -0.96506,-0.22518 -1.31891,-0.24126 -1.97837,-0.0804 -2.10704,0.48253 -4.05324,2.63782 -3.86023,4.24625 0.0804,0.59512 0.0804,0.59512 0.67554,0.48253 0.32169,-0.0804 1.15807,-0.12868 1.86578,-0.12868 1.04548,0 1.46367,0.0804 2.20355,0.43428 1.04548,0.48253 2.2518,1.54409 3.29728,2.91126 1.30282,1.68885 2.50915,1.89794 4.63227,0.77204 1.10982,-0.57903 2.01054,-0.83638 2.01054,-0.56295 0,0.0482 -0.56295,0.62729 -1.23849,1.28674 -1.60843,1.52801 -2.50915,1.99446 -3.86023,1.99446 -1.28674,0 -2.12313,-0.38603 -3.42596,-1.54409 -1.4315,-1.27066 -2.10704,-1.57626 -3.4742,-1.59235 -0.94897,0 -1.28674,0.0804 -2.07487,0.48253 -0.83639,0.41819 -1.68885,1.28674 -1.68885,1.68885 0,0.0643 0.27343,0.17693 0.6112,0.22518 1.46367,0.25735 2.63782,1.01331 3.45812,2.21963 0.73988,1.07765 1.04548,1.93012 1.31891,3.79589 0.14476,0.94898 0.35386,1.65669 0.56295,1.9462 0.43428,0.61121 1.4315,1.09374 2.7665,1.30283 1.23849,0.19301 1.89795,0.40211 1.89795,0.62729 0,0.17693 -2.54132,0.65945 -3.47421,0.65945 -0.93289,0 -2.01054,-0.41819 -2.78258,-1.07764 -0.77205,-0.64338 -0.94898,-0.96506 -1.60843,-2.78258 -0.62729,-1.68886 -1.07765,-2.28398 -2.21963,-2.83084 -0.72379,-0.36994 -1.1259,-0.45036 -1.99446,-0.45036 -0.67553,0.0161 -1.19023,0.11259 -1.41541,0.25735 l -0.35386,0.24126 0.40211,0.27343 c 0.62729,0.40211 1.19024,1.07765 1.56018,1.86579 0.32168,0.65945 0.33777,0.90071 0.24126,2.58956 -0.0965,1.8497 -0.0965,1.88187 0.3056,2.36439 0.22518,0.27344 0.73988,0.67555 1.1259,0.91681 0.96506,0.54686 0.94898,0.78813 -0.0322,0.64337 -2.36439,-0.33777 -3.42596,-1.335 -3.42596,-3.24903 0,-1.23848 -0.25735,-1.88186 -1.02939,-2.58957 -0.96506,-0.90072 -2.12313,-1.06156 -3.55463,-0.5147 -0.36994,0.14476 -0.40211,0.2091 -0.24126,0.40211 0.24126,0.28952 0.27343,1.2385 0.0965,2.58957 l -0.14476,0.99723 0.69163,0.65946 c 0.38602,0.36993 0.65945,0.69162 0.6112,0.73987 -0.11259,0.11259 -1.27066,-0.24126 -1.68885,-0.51469 -0.54687,-0.35386 -0.85247,-1.06157 -1.0294,-2.26789 -0.24126,-1.67277 -0.28951,-1.70493 -2.6539,-2.42873 -1.28675,-0.38602 -1.8497,-0.83638 -1.57626,-1.27066 0.14476,-0.22517 0.43427,-0.25734 2.01053,-0.20909 3.34554,0.0804 5.38824,-0.70771 7.64004,-2.95951 3.2812,-3.2812 4.02107,-7.75263 1.97837,-11.95063 -0.53078,-1.10982 -0.93289,-1.64059 -1.97837,-2.66999 -1.38325,-1.38325 -2.28397,-1.9462 -4.14974,-2.62174 -0.99723,-0.35385 -1.47976,-0.43428 -3.18469,-0.46644 -1.10982,-0.0161 -2.10705,-0.0322 -2.21964,-0.0483 -0.12867,-0.0161 -0.19301,-0.16084 -0.16084,-0.36994 0.0643,-0.45035 1.22241,-1.04547 2.34831,-1.19023 l 0.83638,-0.0965 v -0.99722 c 0.0161,-2.23572 1.25457,-3.60288 3.97282,-4.35885 1.89794,-0.53078 2.33222,-1.528 1.54409,-3.55462 -0.16084,-0.4342801 0.25735,-0.22519 0.80421,0.41819 z"
         id="path824"
         style="fill:url(#linearGradient34199);fill-opacity:1;stroke:none;stroke-width:0.0160843" />
      <path
         d="m 190.73693,19.580391 c -2.96334,0.81139 -5.60917,2.89278 -6.985,5.50333 -1.05834,1.94028 -1.12889,7.83167 -0.10584,9.70139 1.27,2.36361 2.71639,3.84528 4.72723,4.83306 1.69333,0.84667 2.46944,0.98778 4.83305,0.98778 2.43417,0 3.10445,-0.14111 4.93889,-1.05834 7.37306,-3.66889 7.23195,-15.27528 -0.21167,-19.08528 -1.79916,-0.91722 -5.46805,-1.34055 -7.19666,-0.88194 z m 5.67972,3.06917 c 3.175,1.51694 4.83306,5.32694 4.05694,9.27805 -0.77611,3.91584 -3.35138,6.06778 -7.26722,6.10306 -4.86833,0.0353 -8.00805,-3.73945 -7.44361,-9.03111 0.35278,-3.31611 2.11667,-5.78556 4.7625,-6.56167 1.5875,-0.49389 4.62139,-0.38806 5.89139,0.21167 z"
         id="path826"
         style="fill:url(#linearGradient34201);fill-opacity:1;stroke:none;stroke-width:0.0352778" />
      <path
         d="m 75.55498,29.999995 v 10.40695 h 1.41111 1.41111 l 0.0706,-8.00806 0.10583,-8.04333 5.96195,7.9375 5.92666,7.9375 h 1.48167 1.44639 l 0.10583,-10.33639 0.0705,-10.30111 h -1.41111 -1.41111 v 8.00805 7.97278 l -0.91722,-0.84666 c -0.49389,-0.45862 -3.28083,-4.05695 -6.20889,-8.00806 l -5.32694,-7.12611 H 76.9308 75.55497 Z"
         id="path828"
         style="fill:url(#linearGradient34203);fill-opacity:1;stroke:none;stroke-width:0.0352778" />
      <path
         d="m 102.96581,20.195489 c 0.14111,0.35278 1.51695,2.68111 3.03389,5.22111 1.55222,2.50472 3.13972,5.15056 3.56306,5.82084 0.59972,1.02305 0.77611,1.94027 0.88194,5.18583 l 0.10583,3.98639 h 1.34056 1.34056 l 0.14111,-3.98639 0.10583,-3.95111 3.52778,-5.82084 c 4.55083,-7.51416 4.37444,-7.05555 2.54,-7.05555 h -1.48167 l -2.99861,5.04472 c -1.65805,2.75167 -3.13972,5.00945 -3.35139,5.00945 -0.17639,0 -1.62278,-2.25778 -3.175,-5.00945 l -2.82222,-5.00944 -1.48167,-0.0353 c -1.27,0 -1.44639,0.10583 -1.27,0.59972 z"
         id="path830"
         style="fill:url(#linearGradient34205);fill-opacity:1;stroke:none;stroke-width:0.0352778" />
      <path
         d="m 130.4472,20.023784 c -0.10583,0.3175 -0.21167,3.28084 -0.21167,6.63222 0,6.91445 0.42334,8.96056 2.18723,11.00667 3.24555,3.66889 9.56028,3.91584 12.98222,0.49389 2.15194,-2.15194 2.46944,-3.66889 2.46944,-11.71222 v -7.02028 l -1.30527,0.10583 -1.34056,0.10584 -0.17639,7.23194 c -0.17639,7.79639 -0.42333,8.78417 -2.25778,9.98361 -1.55222,1.02306 -3.88055,1.44639 -5.3975,0.9525 -1.76389,-0.56444 -3.56305,-2.29305 -3.98639,-3.88055 -0.17638,-0.67028 -0.35277,-4.19806 -0.35277,-7.86695 v -6.59694 h -1.19945 c -0.77611,0 -1.27,0.21166 -1.41111,0.56444 z"
         id="path832"
         style="fill:url(#linearGradient34207);fill-opacity:1;stroke:none;stroke-width:0.0352778" />
      <path
         d="m 157.85804,20.048899 c 0.10583,0.24694 1.12889,1.86972 2.25777,3.63361 1.16417,1.72861 2.50473,3.81 2.96334,4.62139 l 0.81139,1.44639 -2.99861,4.55083 c -4.37445,6.52639 -4.19806,6.10306 -2.18723,6.10306 1.69334,-0.0353 1.69334,-0.0353 2.89278,-2.04611 0.67028,-1.09361 1.94028,-3.10445 2.78695,-4.445 l 1.5875,-2.43417 2.75166,4.30389 c 1.55222,2.36361 2.99861,4.37444 3.28084,4.48028 0.28222,0.10583 1.05833,0.14111 1.76389,0.0705 l 1.27,-0.10583 -3.56306,-5.22111 -3.56306,-5.22111 2.2225,-3.42195 c 1.23473,-1.86972 2.68112,-4.05694 3.21028,-4.79778 0.56445,-0.74083 0.98778,-1.51694 0.98778,-1.69333 0,-0.14111 -0.67028,-0.28222 -1.48167,-0.28222 l -1.51694,0.0353 -2.18722,3.42194 c -1.19945,1.86972 -2.39889,3.70417 -2.68112,4.09222 -0.42333,0.59972 -0.67027,0.3175 -3.10444,-3.45722 l -2.61056,-4.09222 h -1.55222 c -1.09361,0 -1.48166,0.14111 -1.34055,0.45861 z"
         id="path834"
         style="fill:url(#linearGradient34209);fill-opacity:1;stroke:none;stroke-width:0.0352778" />
    </g>
    <path
       d="m 38.428188,-91.608002 c -4.97004,0.48253 -10.149181,2.58957 -13.752062,5.59733 -0.482529,0.40211 -1.013311,0.85247 -1.174154,0.98115 -0.176927,0.12867 -0.965057,0.96505 -1.753187,1.84969 -3.200774,3.5868 -4.921793,6.86799 -6.015525,11.50027 -0.611203,2.5574 -0.707708,6.70714 -0.22518,9.57015 1.624514,9.71491 8.412084,17.54796 17.805308,20.57181 7.35052,2.36438 15.23182,1.19023 21.84246,-3.24903 5.58125,-3.74764 9.37715,-9.31281 10.96949,-16.10038 0.48253,-2.10704 0.69163,-6.43371 0.38603,-8.55684 -1.52801,-10.63171 -9.13588,-19.02771 -19.49416,-21.53686 -3.00777,-0.7238 -5.66167,-0.91681 -8.58902,-0.62729 z m 6.11204,3.0721 1.28674,0.17693 -1.93012,0.35385 c -4.63227,0.86855 -8.34774,2.83084 -11.75761,6.25679 -1.78536,1.80144 -2.798669,3.15252 -3.876316,5.19523 -5.291731,10.05268 -2.300053,22.35716 6.996666,28.80696 2.87909,2.01054 5.64558,3.05601 10.08485,3.82806 l 0.64337,0.11259 -0.48253,0.12867 c -0.9168,0.27343 -4.47143,0.43428 -6.19245,0.28952 -2.17138,-0.19301 -3.66722,-0.49861 -5.72601,-1.19024 -7.543528,-2.52523 -13.301703,-9.15196 -14.942301,-17.1941 -0.353854,-1.78536 -0.482529,-5.0183 -0.257349,-6.85191 1.061563,-8.58901 6.948413,-16.00387 14.94231,-18.81862 3.79589,-1.33499 7.10925,-1.65668 11.21075,-1.09373 z m -1.31892,3.18469 c 0.3056,0.36994 0.64337,0.98114 0.75597,1.36716 0.41819,1.51193 -0.12868,2.57349 -1.83361,3.52246 -1.67277,0.93289 -2.20355,2.07488 -1.6406,3.55463 0.20909,0.54687 0.46644,0.8203 1.07765,1.20632 0.93288,0.56295 0.94897,0.56295 0.94897,0.19301 0,-1.09373 1.86578,-3.28119 3.32945,-3.90848 1.06156,-0.45036 2.6539,-0.78813 3.87631,-0.78813 2.13921,0 3.10427,-0.98114 3.49029,-3.53854 0.14476,-0.85247 0.38603,-1.38325 0.56295,-1.19024 0.16084,0.19301 0.48253,2.09096 0.48253,2.91126 0,1.06156 -0.43427,2.20354 -1.14199,3.00776 -0.83638,0.94897 -1.27065,1.15807 -3.03993,1.54409 -1.76927,0.38602 -2.20354,0.59512 -3.03993,1.54409 -1.09373,1.25458 -1.46366,3.13644 -0.80421,4.18192 l 0.33777,0.54686 0.86855,-0.78813 c 1.06156,-0.96505 2.30005,-1.47975 3.87631,-1.59234 1.01331,-0.0643 1.38325,0 3.10427,0.53078 2.23572,0.69162 2.99168,0.69162 4.00499,0.0322 0.36994,-0.24127 0.85247,-0.80422 1.17415,-1.335 0.54687,-0.96506 1.52801,-2.09096 1.67277,-1.96228 0.0804,0.0804 -0.16084,1.15807 -0.69163,3.02384 -0.59511,2.18747 -2.20354,3.53855 -4.21408,3.53855 -0.51469,0 -1.46367,-0.11259 -2.10704,-0.25735 -0.96506,-0.22518 -1.31891,-0.24126 -1.97837,-0.0804 -2.10704,0.48253 -4.05324,2.63782 -3.86023,4.24625 0.0804,0.59512 0.0804,0.59512 0.67554,0.48253 0.32169,-0.0804 1.15807,-0.12868 1.86578,-0.12868 1.04548,0 1.46367,0.0804 2.20355,0.43428 1.04548,0.48253 2.2518,1.54409 3.29728,2.91126 1.30282,1.68885 2.50915,1.89794 4.63227,0.77204 1.10982,-0.57903 2.01054,-0.83638 2.01054,-0.56295 0,0.0482 -0.56295,0.62729 -1.23849,1.28674 -1.60843,1.52801 -2.50915,1.99446 -3.86023,1.99446 -1.28674,0 -2.12313,-0.38603 -3.42596,-1.54409 -1.4315,-1.27066 -2.10704,-1.57626 -3.4742,-1.59235 -0.94897,0 -1.28674,0.0804 -2.07487,0.48253 -0.83639,0.41819 -1.68885,1.28674 -1.68885,1.68885 0,0.0643 0.27343,0.17693 0.6112,0.22518 1.46367,0.25735 2.63782,1.01331 3.45812,2.21963 0.73988,1.07765 1.04548,1.93012 1.31891,3.79589 0.14476,0.94898 0.35386,1.65669 0.56295,1.9462 0.43428,0.61121 1.4315,1.09374 2.7665,1.30283 1.23849,0.19301 1.89795,0.40211 1.89795,0.62729 0,0.17693 -2.54132,0.65945 -3.47421,0.65945 -0.93289,0 -2.01054,-0.41819 -2.78258,-1.07764 -0.77205,-0.64338 -0.94898,-0.96506 -1.60843,-2.78258 -0.62729,-1.68886 -1.07765,-2.28398 -2.21963,-2.83084 -0.72379,-0.36994 -1.1259,-0.45036 -1.99446,-0.45036 -0.67553,0.0161 -1.19023,0.11259 -1.41541,0.25735 l -0.35386,0.24126 0.40211,0.27343 c 0.62729,0.40211 1.19024,1.07765 1.56018,1.86579 0.32168,0.65945 0.33777,0.90071 0.24126,2.58956 -0.0965,1.8497 -0.0965,1.88187 0.3056,2.36439 0.22518,0.27344 0.73988,0.67555 1.1259,0.91681 0.96506,0.54686 0.94898,0.78813 -0.0322,0.64337 -2.36439,-0.33777 -3.42596,-1.335 -3.42596,-3.24903 0,-1.23848 -0.25735,-1.88186 -1.02939,-2.58957 -0.96506,-0.90072 -2.12313,-1.06156 -3.55463,-0.5147 -0.36994,0.14476 -0.40211,0.2091 -0.24126,0.40211 0.24126,0.28952 0.27343,1.2385 0.0965,2.58957 l -0.14476,0.99723 0.69163,0.65946 c 0.38602,0.36993 0.65945,0.69162 0.6112,0.73987 -0.11259,0.11259 -1.27066,-0.24126 -1.68885,-0.51469 -0.54687,-0.35386 -0.85247,-1.06157 -1.0294,-2.26789 -0.24126,-1.67277 -0.28951,-1.70493 -2.6539,-2.42873 -1.28675,-0.38602 -1.8497,-0.83638 -1.57626,-1.27066 0.14476,-0.22517 0.43427,-0.25734 2.01053,-0.20909 3.34554,0.0804 5.38824,-0.70771 7.64004,-2.95951 3.2812,-3.2812 4.02107,-7.75263 1.97837,-11.95063 -0.53078,-1.10982 -0.93289,-1.64059 -1.97837,-2.66999 -1.38325,-1.38325 -2.28397,-1.9462 -4.14974,-2.62174 -0.99723,-0.35385 -1.47976,-0.43428 -3.18469,-0.46644 -1.10982,-0.0161 -2.10705,-0.0322 -2.21964,-0.0483 -0.12867,-0.0161 -0.19301,-0.16084 -0.16084,-0.36994 0.0643,-0.45035 1.22241,-1.04547 2.34831,-1.19023 l 0.83638,-0.0965 v -0.99722 c 0.0161,-2.23572 1.25457,-3.60288 3.97282,-4.35885 1.89794,-0.53078 2.33222,-1.528 1.54409,-3.55462 -0.16084,-0.43428 0.25735,-0.22519 0.80421,0.41819 z"
       id="path936"
       style="fill:url(#linearGradient1008);fill-opacity:1;stroke:none;stroke-width:0.0160843" />
    <g
       id="g15954"
       style="fill:url(#linearGradient15962);fill-opacity:1"
       transform="translate(0,-192.05048)">
      <path
         d="m 186.12148,115.5912 c -2.96334,0.81139 -5.60917,2.89278 -6.985,5.50333 -1.05834,1.94028 -1.12889,7.83167 -0.10584,9.70139 1.27,2.36361 2.71639,3.84528 4.72723,4.83306 1.69333,0.84667 2.46944,0.98778 4.83305,0.98778 2.43417,0 3.10445,-0.14111 4.93889,-1.05834 7.37306,-3.66889 7.23195,-15.27528 -0.21167,-19.08528 -1.79916,-0.91722 -5.46805,-1.34055 -7.19666,-0.88194 z m 5.67972,3.06917 c 3.175,1.51694 4.83306,5.32694 4.05694,9.27805 -0.77611,3.91584 -3.35138,6.06778 -7.26722,6.10306 -4.86833,0.0353 -8.00805,-3.73945 -7.44361,-9.03111 0.35278,-3.31611 2.11667,-5.78556 4.7625,-6.56167 1.5875,-0.49389 4.62139,-0.38806 5.89139,0.21167 z"
         id="path938"
         style="fill:url(#linearGradient34211);fill-opacity:1;stroke:none;stroke-width:0.0352778" />
      <path
         d="m 70.939529,126.01081 v 10.40695 h 1.41111 1.41111 l 0.0706,-8.00806 0.10583,-8.04333 5.96195,7.9375 5.92666,7.9375 h 1.48167 1.44639 l 0.10583,-10.33639 0.0705,-10.30111 h -1.41111 -1.41111 v 8.00805 7.97278 l -0.91722,-0.84666 c -0.49389,-0.45862 -3.28083,-4.05695 -6.20889,-8.00806 l -5.32694,-7.12611 h -1.34056 -1.37583 z"
         id="path940"
         style="fill:url(#linearGradient34213);fill-opacity:1;stroke:none;stroke-width:0.0352778" />
      <path
         d="m 98.350359,116.2063 c 0.14111,0.35278 1.51695,2.68111 3.033891,5.22111 1.55222,2.50472 3.13972,5.15056 3.56306,5.82084 0.59972,1.02305 0.77611,1.94027 0.88194,5.18583 l 0.10583,3.98639 h 1.34056 1.34056 l 0.14111,-3.98639 0.10583,-3.95111 3.52778,-5.82084 c 4.55083,-7.51416 4.37444,-7.05555 2.54,-7.05555 h -1.48167 l -2.99861,5.04472 c -1.65805,2.75167 -3.13972,5.00945 -3.35139,5.00945 -0.17639,0 -1.62278,-2.25778 -3.175,-5.00945 l -2.82222,-5.00944 -1.481671,-0.0353 c -1.27,0 -1.44639,0.10583 -1.27,0.59972 z"
         id="path942"
         style="fill:url(#linearGradient34215);fill-opacity:1;stroke:none;stroke-width:0.0352778" />
      <path
         d="m 125.83175,116.0346 c -0.10583,0.3175 -0.21167,3.28084 -0.21167,6.63222 0,6.91445 0.42334,8.96056 2.18723,11.00667 3.24555,3.66889 9.56028,3.91584 12.98222,0.49389 2.15194,-2.15194 2.46944,-3.66889 2.46944,-11.71222 v -7.02028 l -1.30527,0.10583 -1.34056,0.10584 -0.17639,7.23194 c -0.17639,7.79639 -0.42333,8.78417 -2.25778,9.98361 -1.55222,1.02306 -3.88055,1.44639 -5.3975,0.9525 -1.76389,-0.56444 -3.56305,-2.29305 -3.98639,-3.88055 -0.17638,-0.67028 -0.35277,-4.19806 -0.35277,-7.86695 v -6.59694 h -1.19945 c -0.77611,0 -1.27,0.21166 -1.41111,0.56444 z"
         id="path944"
         style="fill:url(#linearGradient34217);fill-opacity:1;stroke:none;stroke-width:0.0352778" />
      <path
         d="m 153.24259,116.05971 c 0.10583,0.24694 1.12889,1.86972 2.25777,3.63361 1.16417,1.72861 2.50473,3.81 2.96334,4.62139 l 0.81139,1.44639 -2.99861,4.55083 c -4.37445,6.52639 -4.19806,6.10306 -2.18723,6.10306 1.69334,-0.0353 1.69334,-0.0353 2.89278,-2.04611 0.67028,-1.09361 1.94028,-3.10445 2.78695,-4.445 l 1.5875,-2.43417 2.75166,4.30389 c 1.55222,2.36361 2.99861,4.37444 3.28084,4.48028 0.28222,0.10583 1.05833,0.14111 1.76389,0.0705 l 1.27,-0.10583 -3.56306,-5.22111 -3.56306,-5.22111 2.2225,-3.42195 c 1.23473,-1.86972 2.68112,-4.05694 3.21028,-4.79778 0.56445,-0.74083 0.98778,-1.51694 0.98778,-1.69333 0,-0.14111 -0.67028,-0.28222 -1.48167,-0.28222 l -1.51694,0.0353 -2.18722,3.42194 c -1.19945,1.86972 -2.39889,3.70417 -2.68112,4.09222 -0.42333,0.59972 -0.67027,0.3175 -3.10444,-3.45722 l -2.61056,-4.09222 h -1.55222 c -1.09361,0 -1.48166,0.14111 -1.34055,0.45861 z"
         id="path946"
         style="fill:url(#linearGradient34219);fill-opacity:1;stroke:none;stroke-width:0.0352778" />
    </g>
  </g>
</svg>
