<?xml version="1.0" encoding="UTF-8" standalone="no"?>
<!-- Created with Inkscape (http://www.inkscape.org/) -->

<svg
   width="40"
   height="40"
   viewBox="0 0 10.583333 10.583333"
   version="1.1"
   id="svg5"
   inkscape:version="1.1 (c68e22c387, 2021-05-23)"
   sodipodi:docname="NYUXO_LOGO_ICO.svg"
   xmlns:inkscape="http://www.inkscape.org/namespaces/inkscape"
   xmlns:sodipodi="http://sodipodi.sourceforge.net/DTD/sodipodi-0.dtd"
   xmlns:xlink="http://www.w3.org/1999/xlink"
   xmlns="http://www.w3.org/2000/svg"
   xmlns:svg="http://www.w3.org/2000/svg">
  <sodipodi:namedview
     id="namedview7"
     pagecolor="#ffffff"
     bordercolor="#666666"
     borderopacity="1.0"
     inkscape:pageshadow="2"
     inkscape:pageopacity="0.0"
     inkscape:pagecheckerboard="true"
     inkscape:document-units="px"
     showgrid="false"
     inkscape:zoom="8.3856039"
     inkscape:cx="32.376917"
     inkscape:cy="25.937309"
     inkscape:window-width="1920"
     inkscape:window-height="1017"
     inkscape:window-x="-8"
     inkscape:window-y="-8"
     inkscape:window-maximized="1"
     inkscape:current-layer="layer1"
     units="px" />
  <defs
     id="defs2">
    <linearGradient
       inkscape:collect="always"
       id="linearGradient15960">
      <stop
         style="stop-color:#27023a;stop-opacity:1"
         offset="0"
         id="stop15956" />
      <stop
         style="stop-color:#491d54;stop-opacity:1"
         offset="1"
         id="stop15958" />
    </linearGradient>
    <linearGradient
       inkscape:collect="always"
       id="linearGradient1006">
      <stop
         style="stop-color:#2d124b;stop-opacity:1"
         offset="0"
         id="stop1002" />
      <stop
         style="stop-color:#6d1950;stop-opacity:1"
         offset="1"
         id="stop1004" />
    </linearGradient>
    <linearGradient
       inkscape:collect="always"
       id="linearGradient871">
      <stop
         style="stop-color:#311353;stop-opacity:1"
         offset="0"
         id="stop867" />
      <stop
         style="stop-color:#c82d6c;stop-opacity:1"
         offset="1"
         id="stop869" />
    </linearGradient>
    <linearGradient
       inkscape:collect="always"
       xlink:href="#linearGradient871"
       id="linearGradient12528"
       gradientUnits="userSpaceOnUse"
       x1="-66.391403"
       y1="105.14243"
       x2="298.19382"
       y2="-64.597359" />
    <linearGradient
       inkscape:collect="always"
       xlink:href="#linearGradient1006"
       id="linearGradient1008"
       x1="15.201676"
       y1="126.01081"
       x2="66.654533"
       y2="126.01081"
       gradientUnits="userSpaceOnUse"
       gradientTransform="matrix(0.19833078,0,0,0.19833078,-2.8256367,-19.700155)" />
    <linearGradient
       inkscape:collect="always"
       xlink:href="#linearGradient15960"
       id="linearGradient15962"
       x1="70.939522"
       y1="126.01081"
       x2="198.98102"
       y2="126.01081"
       gradientUnits="userSpaceOnUse" />
    <linearGradient
       inkscape:collect="always"
       xlink:href="#linearGradient871"
       id="linearGradient34199"
       gradientUnits="userSpaceOnUse"
       x1="-66.391403"
       y1="105.14243"
       x2="298.19382"
       y2="-64.597359" />
    <linearGradient
       inkscape:collect="always"
       xlink:href="#linearGradient871"
       id="linearGradient34201"
       gradientUnits="userSpaceOnUse"
       x1="-66.391403"
       y1="105.14243"
       x2="298.19382"
       y2="-64.597359" />
    <linearGradient
       inkscape:collect="always"
       xlink:href="#linearGradient871"
       id="linearGradient34203"
       gradientUnits="userSpaceOnUse"
       x1="-66.391403"
       y1="105.14243"
       x2="298.19382"
       y2="-64.597359" />
    <linearGradient
       inkscape:collect="always"
       xlink:href="#linearGradient871"
       id="linearGradient34205"
       gradientUnits="userSpaceOnUse"
       x1="-66.391403"
       y1="105.14243"
       x2="298.19382"
       y2="-64.597359" />
    <linearGradient
       inkscape:collect="always"
       xlink:href="#linearGradient871"
       id="linearGradient34207"
       gradientUnits="userSpaceOnUse"
       x1="-66.391403"
       y1="105.14243"
       x2="298.19382"
       y2="-64.597359" />
    <linearGradient
       inkscape:collect="always"
       xlink:href="#linearGradient871"
       id="linearGradient34209"
       gradientUnits="userSpaceOnUse"
       x1="-66.391403"
       y1="105.14243"
       x2="298.19382"
       y2="-64.597359" />
    <linearGradient
       inkscape:collect="always"
       xlink:href="#linearGradient15960"
       id="linearGradient34211"
       gradientUnits="userSpaceOnUse"
       x1="70.939522"
       y1="126.01081"
       x2="198.98102"
       y2="126.01081" />
    <linearGradient
       inkscape:collect="always"
       xlink:href="#linearGradient15960"
       id="linearGradient34213"
       gradientUnits="userSpaceOnUse"
       x1="70.939522"
       y1="126.01081"
       x2="198.98102"
       y2="126.01081" />
    <linearGradient
       inkscape:collect="always"
       xlink:href="#linearGradient15960"
       id="linearGradient34215"
       gradientUnits="userSpaceOnUse"
       x1="70.939522"
       y1="126.01081"
       x2="198.98102"
       y2="126.01081" />
    <linearGradient
       inkscape:collect="always"
       xlink:href="#linearGradient15960"
       id="linearGradient34217"
       gradientUnits="userSpaceOnUse"
       x1="70.939522"
       y1="126.01081"
       x2="198.98102"
       y2="126.01081" />
    <linearGradient
       inkscape:collect="always"
       xlink:href="#linearGradient15960"
       id="linearGradient34219"
       gradientUnits="userSpaceOnUse"
       x1="70.939522"
       y1="126.01081"
       x2="198.98102"
       y2="126.01081" />
  </defs>
  <g
     inkscape:label="Capa 1"
     inkscape:groupmode="layer"
     id="layer1">
    <g
       id="g863"
       transform="matrix(0.19949253,0,0,0.19949253,-3.362246,-14.213392)"
       style="fill:url(#linearGradient12528);fill-opacity:1">
      <path
         d="m 43.043639,4.4316679 c -4.97004,0.48253 -10.149181,2.58957 -13.752062,5.5973301 -0.482529,0.40211 -1.013311,0.85247 -1.174154,0.98115 -0.176927,0.12867 -0.965057,0.96505 -1.753187,1.84969 -3.200774,3.5868 -4.921793,6.86799 -6.015525,11.50027 -0.611203,2.5574 -0.707708,6.70714 -0.22518,9.57015 1.624514,9.71491 8.412084,17.54796 17.805308,20.57181 7.35052,2.36438 15.23182,1.19023 21.84246,-3.24903 5.58125,-3.74764 9.37715,-9.31281 10.96949,-16.10038 0.48253,-2.10704 0.69163,-6.43371 0.38603,-8.55684 -1.52801,-10.63171 -9.13588,-19.0277101 -19.49416,-21.5368601 -3.00777,-0.7238 -5.66167,-0.91681 -8.58902,-0.62729 z m 6.11204,3.0721 1.28674,0.17693 -1.93012,0.35385 c -4.63227,0.86855 -8.34774,2.8308401 -11.75761,6.2567901 -1.78536,1.80144 -2.798669,3.15252 -3.876316,5.19523 -5.291731,10.05268 -2.300053,22.35716 6.996666,28.80696 2.87909,2.01054 5.64558,3.05601 10.08485,3.82806 l 0.64337,0.11259 -0.48253,0.12867 c -0.9168,0.27343 -4.47143,0.43428 -6.19245,0.28952 -2.17138,-0.19301 -3.66722,-0.49861 -5.72601,-1.19024 -7.543528,-2.52523 -13.301703,-9.15196 -14.942301,-17.1941 -0.353854,-1.78536 -0.482529,-5.0183 -0.257349,-6.85191 1.061563,-8.58901 6.948413,-16.00387 14.94231,-18.8186201 3.79589,-1.33499 7.10925,-1.65668 11.21075,-1.09373 z m -1.31892,3.1846901 c 0.3056,0.36994 0.64337,0.98114 0.75597,1.36716 0.41819,1.51193 -0.12868,2.57349 -1.83361,3.52246 -1.67277,0.93289 -2.20355,2.07488 -1.6406,3.55463 0.20909,0.54687 0.46644,0.8203 1.07765,1.20632 0.93288,0.56295 0.94897,0.56295 0.94897,0.19301 0,-1.09373 1.86578,-3.28119 3.32945,-3.90848 1.06156,-0.45036 2.6539,-0.78813 3.87631,-0.78813 2.13921,0 3.10427,-0.98114 3.49029,-3.53854 0.14476,-0.85247 0.38603,-1.38325 0.56295,-1.19024 0.16084,0.19301 0.48253,2.09096 0.48253,2.91126 0,1.06156 -0.43427,2.20354 -1.14199,3.00776 -0.83638,0.94897 -1.27065,1.15807 -3.03993,1.54409 -1.76927,0.38602 -2.20354,0.59512 -3.03993,1.54409 -1.09373,1.25458 -1.46366,3.13644 -0.80421,4.18192 l 0.33777,0.54686 0.86855,-0.78813 c 1.06156,-0.96505 2.30005,-1.47975 3.87631,-1.59234 1.01331,-0.0643 1.38325,0 3.10427,0.53078 2.23572,0.69162 2.99168,0.69162 4.00499,0.0322 0.36994,-0.24127 0.85247,-0.80422 1.17415,-1.335 0.54687,-0.96506 1.52801,-2.09096 1.67277,-1.96228 0.0804,0.0804 -0.16084,1.15807 -0.69163,3.02384 -0.59511,2.18747 -2.20354,3.53855 -4.21408,3.53855 -0.51469,0 -1.46367,-0.11259 -2.10704,-0.25735 -0.96506,-0.22518 -1.31891,-0.24126 -1.97837,-0.0804 -2.10704,0.48253 -4.05324,2.63782 -3.86023,4.24625 0.0804,0.59512 0.0804,0.59512 0.67554,0.48253 0.32169,-0.0804 1.15807,-0.12868 1.86578,-0.12868 1.04548,0 1.46367,0.0804 2.20355,0.43428 1.04548,0.48253 2.2518,1.54409 3.29728,2.91126 1.30282,1.68885 2.50915,1.89794 4.63227,0.77204 1.10982,-0.57903 2.01054,-0.83638 2.01054,-0.56295 0,0.0482 -0.56295,0.62729 -1.23849,1.28674 -1.60843,1.52801 -2.50915,1.99446 -3.86023,1.99446 -1.28674,0 -2.12313,-0.38603 -3.42596,-1.54409 -1.4315,-1.27066 -2.10704,-1.57626 -3.4742,-1.59235 -0.94897,0 -1.28674,0.0804 -2.07487,0.48253 -0.83639,0.41819 -1.68885,1.28674 -1.68885,1.68885 0,0.0643 0.27343,0.17693 0.6112,0.22518 1.46367,0.25735 2.63782,1.01331 3.45812,2.21963 0.73988,1.07765 1.04548,1.93012 1.31891,3.79589 0.14476,0.94898 0.35386,1.65669 0.56295,1.9462 0.43428,0.61121 1.4315,1.09374 2.7665,1.30283 1.23849,0.19301 1.89795,0.40211 1.89795,0.62729 0,0.17693 -2.54132,0.65945 -3.47421,0.65945 -0.93289,0 -2.01054,-0.41819 -2.78258,-1.07764 -0.77205,-0.64338 -0.94898,-0.96506 -1.60843,-2.78258 -0.62729,-1.68886 -1.07765,-2.28398 -2.21963,-2.83084 -0.72379,-0.36994 -1.1259,-0.45036 -1.99446,-0.45036 -0.67553,0.0161 -1.19023,0.11259 -1.41541,0.25735 l -0.35386,0.24126 0.40211,0.27343 c 0.62729,0.40211 1.19024,1.07765 1.56018,1.86579 0.32168,0.65945 0.33777,0.90071 0.24126,2.58956 -0.0965,1.8497 -0.0965,1.88187 0.3056,2.36439 0.22518,0.27344 0.73988,0.67555 1.1259,0.91681 0.96506,0.54686 0.94898,0.78813 -0.0322,0.64337 -2.36439,-0.33777 -3.42596,-1.335 -3.42596,-3.24903 0,-1.23848 -0.25735,-1.88186 -1.02939,-2.58957 -0.96506,-0.90072 -2.12313,-1.06156 -3.55463,-0.5147 -0.36994,0.14476 -0.40211,0.2091 -0.24126,0.40211 0.24126,0.28952 0.27343,1.2385 0.0965,2.58957 l -0.14476,0.99723 0.69163,0.65946 c 0.38602,0.36993 0.65945,0.69162 0.6112,0.73987 -0.11259,0.11259 -1.27066,-0.24126 -1.68885,-0.51469 -0.54687,-0.35386 -0.85247,-1.06157 -1.0294,-2.26789 -0.24126,-1.67277 -0.28951,-1.70493 -2.6539,-2.42873 -1.28675,-0.38602 -1.8497,-0.83638 -1.57626,-1.27066 0.14476,-0.22517 0.43427,-0.25734 2.01053,-0.20909 3.34554,0.0804 5.38824,-0.70771 7.64004,-2.95951 3.2812,-3.2812 4.02107,-7.75263 1.97837,-11.95063 -0.53078,-1.10982 -0.93289,-1.64059 -1.97837,-2.66999 -1.38325,-1.38325 -2.28397,-1.9462 -4.14974,-2.62174 -0.99723,-0.35385 -1.47976,-0.43428 -3.18469,-0.46644 -1.10982,-0.0161 -2.10705,-0.0322 -2.21964,-0.0483 -0.12867,-0.0161 -0.19301,-0.16084 -0.16084,-0.36994 0.0643,-0.45035 1.22241,-1.04547 2.34831,-1.19023 l 0.83638,-0.0965 v -0.99722 c 0.0161,-2.23572 1.25457,-3.60288 3.97282,-4.35885 1.89794,-0.53078 2.33222,-1.528 1.54409,-3.55462 -0.16084,-0.4342801 0.25735,-0.22519 0.80421,0.41819 z"
         id="path824"
         style="fill:url(#linearGradient34199);fill-opacity:1;stroke:none;stroke-width:0.0160843" />
      <path
         d="m 190.73693,19.580391 c -2.96334,0.81139 -5.60917,2.89278 -6.985,5.50333 -1.05834,1.94028 -1.12889,7.83167 -0.10584,9.70139 1.27,2.36361 2.71639,3.84528 4.72723,4.83306 1.69333,0.84667 2.46944,0.98778 4.83305,0.98778 2.43417,0 3.10445,-0.14111 4.93889,-1.05834 7.37306,-3.66889 7.23195,-15.27528 -0.21167,-19.08528 -1.79916,-0.91722 -5.46805,-1.34055 -7.19666,-0.88194 z m 5.67972,3.06917 c 3.175,1.51694 4.83306,5.32694 4.05694,9.27805 -0.77611,3.91584 -3.35138,6.06778 -7.26722,6.10306 -4.86833,0.0353 -8.00805,-3.73945 -7.44361,-9.03111 0.35278,-3.31611 2.11667,-5.78556 4.7625,-6.56167 1.5875,-0.49389 4.62139,-0.38806 5.89139,0.21167 z"
         id="path826"
         style="fill:url(#linearGradient34201);fill-opacity:1;stroke:none;stroke-width:0.0352778" />
      <path
         d="m 75.55498,29.999995 v 10.40695 h 1.41111 1.41111 l 0.0706,-8.00806 0.10583,-8.04333 5.96195,7.9375 5.92666,7.9375 h 1.48167 1.44639 l 0.10583,-10.33639 0.0705,-10.30111 h -1.41111 -1.41111 v 8.00805 7.97278 l -0.91722,-0.84666 c -0.49389,-0.45862 -3.28083,-4.05695 -6.20889,-8.00806 l -5.32694,-7.12611 H 76.9308 75.55497 Z"
         id="path828"
         style="fill:url(#linearGradient34203);fill-opacity:1;stroke:none;stroke-width:0.0352778" />
      <path
         d="m 102.96581,20.195489 c 0.14111,0.35278 1.51695,2.68111 3.03389,5.22111 1.55222,2.50472 3.13972,5.15056 3.56306,5.82084 0.59972,1.02305 0.77611,1.94027 0.88194,5.18583 l 0.10583,3.98639 h 1.34056 1.34056 l 0.14111,-3.98639 0.10583,-3.95111 3.52778,-5.82084 c 4.55083,-7.51416 4.37444,-7.05555 2.54,-7.05555 h -1.48167 l -2.99861,5.04472 c -1.65805,2.75167 -3.13972,5.00945 -3.35139,5.00945 -0.17639,0 -1.62278,-2.25778 -3.175,-5.00945 l -2.82222,-5.00944 -1.48167,-0.0353 c -1.27,0 -1.44639,0.10583 -1.27,0.59972 z"
         id="path830"
         style="fill:url(#linearGradient34205);fill-opacity:1;stroke:none;stroke-width:0.0352778" />
      <path
         d="m 130.4472,20.023784 c -0.10583,0.3175 -0.21167,3.28084 -0.21167,6.63222 0,6.91445 0.42334,8.96056 2.18723,11.00667 3.24555,3.66889 9.56028,3.91584 12.98222,0.49389 2.15194,-2.15194 2.46944,-3.66889 2.46944,-11.71222 v -7.02028 l -1.30527,0.10583 -1.34056,0.10584 -0.17639,7.23194 c -0.17639,7.79639 -0.42333,8.78417 -2.25778,9.98361 -1.55222,1.02306 -3.88055,1.44639 -5.3975,0.9525 -1.76389,-0.56444 -3.56305,-2.29305 -3.98639,-3.88055 -0.17638,-0.67028 -0.35277,-4.19806 -0.35277,-7.86695 v -6.59694 h -1.19945 c -0.77611,0 -1.27,0.21166 -1.41111,0.56444 z"
         id="path832"
         style="fill:url(#linearGradient34207);fill-opacity:1;stroke:none;stroke-width:0.0352778" />
      <path
         d="m 157.85804,20.048899 c 0.10583,0.24694 1.12889,1.86972 2.25777,3.63361 1.16417,1.72861 2.50473,3.81 2.96334,4.62139 l 0.81139,1.44639 -2.99861,4.55083 c -4.37445,6.52639 -4.19806,6.10306 -2.18723,6.10306 1.69334,-0.0353 1.69334,-0.0353 2.89278,-2.04611 0.67028,-1.09361 1.94028,-3.10445 2.78695,-4.445 l 1.5875,-2.43417 2.75166,4.30389 c 1.55222,2.36361 2.99861,4.37444 3.28084,4.48028 0.28222,0.10583 1.05833,0.14111 1.76389,0.0705 l 1.27,-0.10583 -3.56306,-5.22111 -3.56306,-5.22111 2.2225,-3.42195 c 1.23473,-1.86972 2.68112,-4.05694 3.21028,-4.79778 0.56445,-0.74083 0.98778,-1.51694 0.98778,-1.69333 0,-0.14111 -0.67028,-0.28222 -1.48167,-0.28222 l -1.51694,0.0353 -2.18722,3.42194 c -1.19945,1.86972 -2.39889,3.70417 -2.68112,4.09222 -0.42333,0.59972 -0.67027,0.3175 -3.10444,-3.45722 l -2.61056,-4.09222 h -1.55222 c -1.09361,0 -1.48166,0.14111 -1.34055,0.45861 z"
         id="path834"
         style="fill:url(#linearGradient34209);fill-opacity:1;stroke:none;stroke-width:0.0352778" />
    </g>
    <path
       d="M 4.7958558,0.22067934 C 3.8101439,0.31637989 2.7829608,0.73427078 2.0683986,1.3308021 1.9726983,1.4105529 1.8674279,1.4998732 1.8355277,1.5253944 1.8004377,1.5509136 1.6441272,1.7167935 1.4878168,1.8922448 0.85300474,2.6036177 0.5116737,3.2543787 0.29475298,4.1731024 0.17353261,4.6803135 0.1543927,5.5033347 0.25009285,6.0711577 0.57228398,7.9979234 1.9184681,9.5514583 3.7814335,10.151181 5.2392679,10.62011 6.8023723,10.38724 8.1134657,9.5067981 9.2203993,8.7635258 9.9732429,7.6597813 10.289053,6.3135972 10.384754,5.8957063 10.426225,5.0375945 10.365615,4.6165125 10.062563,2.5079171 8.5536886,0.84273193 6.4993228,0.34509025 5.9027895,0.20153844 5.3764394,0.16325861 4.7958558,0.22067934 Z m 1.2122057,0.60929199 0.2552001,0.0350907 -0.3828022,0.0701794 C 4.9617377,1.1075015 4.2248456,1.496684 3.5485634,2.1761554 3.1944716,2.5334364 2.9935012,2.8013971 2.7797707,3.2065294 1.7302575,5.2002852 2.3235994,7.6406424 4.1674249,8.9198362 4.7384371,9.3185882 5.2871172,9.5259371 6.1675611,9.6790583 l 0.1276,0.02233 -0.0957,0.025519 C 6.0176309,9.7811372 5.3126384,9.8130387 4.9713071,9.7843284 4.5406557,9.7460485 4.2439845,9.6854386 3.8356631,9.5482671 2.3395493,9.0474363 1.197526,7.7331518 0.87214485,6.1381479 0.80196471,5.784056 0.7764445,5.1428645 0.82110462,4.7792032 1.0316453,3.0757382 2.1991888,1.6051432 3.7846247,1.0468916 4.5374665,0.78212204 5.1946078,0.71832102 6.0080615,0.82997133 Z M 5.746479,1.4615934 c 0.06061,0.07337 0.1276001,0.1945902 0.1499321,0.2711499 0.08294,0.2998622 -0.025521,0.5104022 -0.3636613,0.6986122 -0.3317617,0.1850208 -0.4370317,0.4115126 -0.3253814,0.7049925 0.041469,0.1084612 0.092509,0.1626908 0.2137311,0.2392504 0.1850189,0.1116503 0.18821,0.1116503 0.18821,0.03828 0,-0.2169203 0.3700416,-0.6507609 0.6603324,-0.7751718 0.21054,-0.08932 0.5263501,-0.1563105 0.7687916,-0.1563105 0.4242712,0 0.6156723,-0.1945902 0.6922319,-0.7018014 0.02871,-0.169071 0.076562,-0.274341 0.1116503,-0.2360612 0.0319,0.03828 0.095701,0.4147017 0.095701,0.5773925 0,0.21054 -0.086129,0.4370298 -0.2264918,0.5965314 C 7.5456446,2.9066671 7.4595155,2.9481381 7.1086128,3.0246977 6.7577121,3.1012574 6.671583,3.1427283 6.5057012,3.3309383 6.2887808,3.5797601 6.2154123,3.9529909 6.3462016,4.1603418 l 0.06699,0.1084591 0.1722602,-0.1563104 c 0.2105401,-0.1913991 0.4561708,-0.29348 0.7687916,-0.31581 0.2009706,-0.012753 0.2743411,0 0.6156723,0.10527 C 8.4133278,4.03912 8.5632579,4.03912 8.7642285,3.9083405 8.8375991,3.8604854 8.9332997,3.7488351 8.9970987,3.6435651 9.1055598,3.452164 9.3001501,3.2288634 9.3288605,3.2543846 9.3448063,3.2703304 9.296961,3.4840655 9.191689,3.8541051 9.0736603,4.2879478 8.7546592,4.5559085 8.3559072,4.5559085 c -0.1020789,0 -0.2902908,-0.02233 -0.4178909,-0.05104 -0.1914011,-0.04466 -0.2615805,-0.04785 -0.3923717,-0.015946 -0.4178909,0.095701 -0.8038822,0.5231609 -0.7656024,0.8421621 0.015946,0.1180306 0.015946,0.1180306 0.1339804,0.0957 0.063801,-0.015946 0.2296809,-0.025521 0.3700416,-0.025521 0.2073508,0 0.2902908,0.015946 0.4370318,0.086131 0.2073508,0.095701 0.4466012,0.3062406 0.6539521,0.5773925 0.2583893,0.3349509 0.4976417,0.3764199 0.9187217,0.1531193 0.2201115,-0.1148395 0.398752,-0.1658799 0.398752,-0.1116503 0,0.00956 -0.1116503,0.1244109 -0.2456307,0.2552001 -0.3190012,0.3030516 -0.4976417,0.395563 -0.7656024,0.395563 -0.2552002,0 -0.4210821,-0.076562 -0.6794734,-0.3062405 C 7.7179048,6.1987677 7.5839245,6.1381578 7.3127745,6.1349666 c -0.1882099,0 -0.2552001,0.015946 -0.4115105,0.095701 -0.1658819,0.08294 -0.334951,0.2552001 -0.334951,0.3349509 0,0.012753 0.05423,0.035091 0.1212198,0.04466 0.2902908,0.051041 0.5231609,0.2009706 0.6858516,0.440221 0.146741,0.2137312 0.2073509,0.3828022 0.2615805,0.7528418 0.02871,0.188212 0.070181,0.3285726 0.1116503,0.3859914 0.086131,0.1212217 0.2839105,0.2169223 0.5486821,0.2583913 0.2456307,0.03828 0.3764219,0.079751 0.3764219,0.1244109 0,0.035091 -0.504022,0.1307892 -0.6890428,0.1307892 -0.1850208,0 -0.3987519,-0.08294 -0.5518712,-0.2137292 C 7.2776839,8.3615926 7.2425932,8.2977935 7.111804,7.9373234 6.9873931,7.6023705 6.8980728,7.4843398 6.671583,7.3758807 6.5280332,7.3025102 6.4482824,7.2865604 6.2760202,7.2865604 6.1420418,7.2897536 6.039961,7.3088905 5.9953009,7.3376009 l -0.070181,0.047849 0.079751,0.05423 c 0.1244109,0.079751 0.2360612,0.2137312 0.3094317,0.3700436 0.063799,0.1307892 0.06699,0.1786385 0.047849,0.5135895 -0.019139,0.3668524 -0.019139,0.3732327 0.06061,0.4689313 0.04466,0.054231 0.146741,0.1339823 0.2233006,0.1818316 0.1914007,0.108459 0.1882116,0.1563103 -0.00639,0.1275999 C 6.1707443,9.0346856 5.9602023,8.8369042 5.9602023,8.4572931 5.9602023,8.2116644 5.9091618,8.0840624 5.7560425,7.9437017 5.5646414,7.7650612 5.3349605,7.7331617 5.05105,7.8416208 4.977679,7.8703308 4.971299,7.8830918 5.003201,7.9213718 5.05105,7.9787928 5.057431,8.1670045 5.02234,8.4349633 L 4.99363,8.6327447 5.1308015,8.7635359 c 0.07656,0.073369 0.1307892,0.1371695 0.1212198,0.146739 C 5.2296905,8.9326048 5.0000096,8.8624254 4.9170696,8.8081958 4.8086085,8.7380145 4.7479986,8.5976538 4.7129079,8.3584034 4.6650586,8.0266416 4.6554892,8.0202633 4.1865579,7.8767115 3.9313557,7.8001519 3.8197054,7.7108316 3.873937,7.6247005 3.902647,7.5800425 3.960066,7.5736625 4.272687,7.5832315 4.9362105,7.5991773 5.3413408,7.4428709 5.7879421,6.9962696 6.438705,6.3455067 6.585444,5.4586845 6.1803137,4.6260918 6.0750437,4.4059804 5.9952929,4.3007123 5.7879421,4.0965506 5.513601,3.8222096 5.3349605,3.7105593 4.9649209,3.5765789 4.7671395,3.5063996 4.6714389,3.4904478 4.3332988,3.4840695 4.1131874,3.4808764 3.915406,3.4776832 3.8930759,3.4744901 3.8675569,3.4713001 3.8547959,3.4425901 3.8611769,3.4011191 3.8739299,3.3118011 4.1036184,3.1937702 4.326919,3.1650599 L 4.4927984,3.1459215 V 2.948142 C 4.4959884,2.50473 4.7416183,2.23358 5.2807309,2.0836479 c 0.3764199,-0.10527 0.462551,-0.3030494 0.3062406,-0.7049905 -0.031899,-0.086131 0.05104,-0.044662 0.1594996,0.08294 z"
       id="path936"
       style="fill:url(#linearGradient1008);fill-opacity:1;stroke:none;stroke-width:0.00319001" />
    <g
       id="g15954"
       style="fill:url(#linearGradient15962);fill-opacity:1"
       transform="matrix(0.19833078,0,0,0.19833078,-2.7186776,-44.05837)">
      <path
         d="m 186.12148,115.5912 c -2.96334,0.81139 -5.60917,2.89278 -6.985,5.50333 -1.05834,1.94028 -1.12889,7.83167 -0.10584,9.70139 1.27,2.36361 2.71639,3.84528 4.72723,4.83306 1.69333,0.84667 2.46944,0.98778 4.83305,0.98778 2.43417,0 3.10445,-0.14111 4.93889,-1.05834 7.37306,-3.66889 7.23195,-15.27528 -0.21167,-19.08528 -1.79916,-0.91722 -5.46805,-1.34055 -7.19666,-0.88194 z m 5.67972,3.06917 c 3.175,1.51694 4.83306,5.32694 4.05694,9.27805 -0.77611,3.91584 -3.35138,6.06778 -7.26722,6.10306 -4.86833,0.0353 -8.00805,-3.73945 -7.44361,-9.03111 0.35278,-3.31611 2.11667,-5.78556 4.7625,-6.56167 1.5875,-0.49389 4.62139,-0.38806 5.89139,0.21167 z"
         id="path938"
         style="fill:url(#linearGradient34211);fill-opacity:1;stroke:none;stroke-width:0.0352778" />
      <path
         d="m 70.939529,126.01081 v 10.40695 h 1.41111 1.41111 l 0.0706,-8.00806 0.10583,-8.04333 5.96195,7.9375 5.92666,7.9375 h 1.48167 1.44639 l 0.10583,-10.33639 0.0705,-10.30111 h -1.41111 -1.41111 v 8.00805 7.97278 l -0.91722,-0.84666 c -0.49389,-0.45862 -3.28083,-4.05695 -6.20889,-8.00806 l -5.32694,-7.12611 h -1.34056 -1.37583 z"
         id="path940"
         style="fill:url(#linearGradient34213);fill-opacity:1;stroke:none;stroke-width:0.0352778" />
      <path
         d="m 98.350359,116.2063 c 0.14111,0.35278 1.51695,2.68111 3.033891,5.22111 1.55222,2.50472 3.13972,5.15056 3.56306,5.82084 0.59972,1.02305 0.77611,1.94027 0.88194,5.18583 l 0.10583,3.98639 h 1.34056 1.34056 l 0.14111,-3.98639 0.10583,-3.95111 3.52778,-5.82084 c 4.55083,-7.51416 4.37444,-7.05555 2.54,-7.05555 h -1.48167 l -2.99861,5.04472 c -1.65805,2.75167 -3.13972,5.00945 -3.35139,5.00945 -0.17639,0 -1.62278,-2.25778 -3.175,-5.00945 l -2.82222,-5.00944 -1.481671,-0.0353 c -1.27,0 -1.44639,0.10583 -1.27,0.59972 z"
         id="path942"
         style="fill:url(#linearGradient34215);fill-opacity:1;stroke:none;stroke-width:0.0352778" />
      <path
         d="m 125.83175,116.0346 c -0.10583,0.3175 -0.21167,3.28084 -0.21167,6.63222 0,6.91445 0.42334,8.96056 2.18723,11.00667 3.24555,3.66889 9.56028,3.91584 12.98222,0.49389 2.15194,-2.15194 2.46944,-3.66889 2.46944,-11.71222 v -7.02028 l -1.30527,0.10583 -1.34056,0.10584 -0.17639,7.23194 c -0.17639,7.79639 -0.42333,8.78417 -2.25778,9.98361 -1.55222,1.02306 -3.88055,1.44639 -5.3975,0.9525 -1.76389,-0.56444 -3.56305,-2.29305 -3.98639,-3.88055 -0.17638,-0.67028 -0.35277,-4.19806 -0.35277,-7.86695 v -6.59694 h -1.19945 c -0.77611,0 -1.27,0.21166 -1.41111,0.56444 z"
         id="path944"
         style="fill:url(#linearGradient34217);fill-opacity:1;stroke:none;stroke-width:0.0352778" />
      <path
         d="m 153.24259,116.05971 c 0.10583,0.24694 1.12889,1.86972 2.25777,3.63361 1.16417,1.72861 2.50473,3.81 2.96334,4.62139 l 0.81139,1.44639 -2.99861,4.55083 c -4.37445,6.52639 -4.19806,6.10306 -2.18723,6.10306 1.69334,-0.0353 1.69334,-0.0353 2.89278,-2.04611 0.67028,-1.09361 1.94028,-3.10445 2.78695,-4.445 l 1.5875,-2.43417 2.75166,4.30389 c 1.55222,2.36361 2.99861,4.37444 3.28084,4.48028 0.28222,0.10583 1.05833,0.14111 1.76389,0.0705 l 1.27,-0.10583 -3.56306,-5.22111 -3.56306,-5.22111 2.2225,-3.42195 c 1.23473,-1.86972 2.68112,-4.05694 3.21028,-4.79778 0.56445,-0.74083 0.98778,-1.51694 0.98778,-1.69333 0,-0.14111 -0.67028,-0.28222 -1.48167,-0.28222 l -1.51694,0.0353 -2.18722,3.42194 c -1.19945,1.86972 -2.39889,3.70417 -2.68112,4.09222 -0.42333,0.59972 -0.67027,0.3175 -3.10444,-3.45722 l -2.61056,-4.09222 h -1.55222 c -1.09361,0 -1.48166,0.14111 -1.34055,0.45861 z"
         id="path946"
         style="fill:url(#linearGradient34219);fill-opacity:1;stroke:none;stroke-width:0.0352778" />
    </g>
  </g>
</svg>
